<svg width="17" height="16" viewBox="0 0 17 16" fill="none" xmlns="http://www.w3.org/2000/svg">
<path fill-rule="evenodd" clip-rule="evenodd" d="M8.50002 16C10.7544 16 12.9164 15.1571 14.5104 13.6569C16.1045 12.1566 17 10.1217 17 8C17 5.87827 16.1045 3.84344 14.5104 2.34315C12.9164 0.842855 10.7544 0 8.50002 0C6.24568 0 4.08367 0.842855 2.48961 2.34315C0.895554 3.84344 2.02656e-05 5.87827 2.02656e-05 8C2.02656e-05 10.1217 0.895554 12.1566 2.48961 13.6569C4.08367 15.1571 6.24568 16 8.50002 16ZM12.4387 6.707C12.6323 6.5184 12.7393 6.2658 12.7369 6.0036C12.7345 5.7414 12.6228 5.49059 12.4258 5.30518C12.2288 5.11977 11.9623 5.0146 11.6837 5.01233C11.4051 5.01005 11.1367 5.11084 10.9363 5.293L7.43752 8.586L6.06371 7.293C5.86332 7.11084 5.59493 7.01005 5.31634 7.01233C5.03776 7.0146 4.77127 7.11977 4.57428 7.30518C4.37728 7.49059 4.26554 7.7414 4.26312 8.0036C4.2607 8.2658 4.36779 8.5184 4.56133 8.707L6.68633 10.707C6.88558 10.8945 7.15578 10.9998 7.43752 10.9998C7.71926 10.9998 7.98946 10.8945 8.18871 10.707L12.4387 6.707Z" fill="#464660"/>
</svg>
