<svg width="13" height="16" viewBox="0 0 13 16" fill="none" xmlns="http://www.w3.org/2000/svg">
<path d="M12.1877 14.3954H0.815701C0.600269 14.3954 0.393661 14.4799 0.241327 14.6304C0.0889941 14.7808 0.003414 14.9849 0.003414 15.1977C0.003414 15.4105 0.0889941 15.6145 0.241327 15.765C0.393661 15.9155 0.600269 16 0.815701 16H12.1877C12.4031 16 12.6098 15.9155 12.7621 15.765C12.9144 15.6145 13 15.4105 13 15.1977C13 14.9849 12.9144 14.7808 12.7621 14.6304C12.6098 14.4799 12.4031 14.3954 12.1877 14.3954ZM0.815701 12.7907H0.888806L4.27604 12.4859C4.64709 12.4493 4.99413 12.2879 5.25891 12.0285L12.5695 4.80768C12.8532 4.5116 13.0066 4.11649 12.9959 3.70893C12.9853 3.30138 12.8115 2.91462 12.5126 2.6334L10.287 0.435049C9.99648 0.165547 9.61584 0.0109111 9.21745 0.000555811C8.81906 -0.00979952 8.43071 0.124849 8.12628 0.378887L0.815701 7.59974C0.553142 7.86127 0.38966 8.20405 0.352697 8.57054L0.003414 11.9162C-0.00752834 12.0337 0.00790946 12.1522 0.0486268 12.2631C0.0893442 12.3741 0.154339 12.4748 0.238977 12.5581C0.314877 12.6324 0.404892 12.6912 0.503859 12.7312C0.602826 12.7711 0.708798 12.7913 0.815701 12.7907ZM9.15788 1.55829L11.3754 3.74862L9.75085 5.31314L7.57392 3.16293L9.15788 1.55829Z" fill="#464660"/>
</svg>
