<svg width="23" height="30" viewBox="0 0 23 30" fill="none" xmlns="http://www.w3.org/2000/svg">
<path d="M9.88691 29.3259C6.82038 25.5544 0 16.4136 0 11.2792C0 5.04979 5.04979 0 11.2792 0C17.5062 0 22.5584 5.04979 22.5584 11.2792C22.5584 16.4136 15.6851 25.5544 12.6715 29.3259C11.9489 30.2247 10.6095 30.2247 9.88691 29.3259V29.3259ZM11.2792 15.0389C13.3529 15.0389 15.0389 13.3529 15.0389 11.2792C15.0389 9.20546 13.3529 7.51946 11.2792 7.51946C9.20546 7.51946 7.51946 9.20546 7.51946 11.2792C7.51946 13.3529 9.20546 15.0389 11.2792 15.0389Z" fill="#368B85"/>
</svg>
