<svg width="29" height="22" viewBox="0 0 29 22" fill="none" xmlns="http://www.w3.org/2000/svg">
<path d="M28.5986 11.9732L18.9315 21.5966C18.0684 22.4558 16.5723 21.8544 16.5723 20.6228V15.1237H8.74647C7.98115 15.1237 7.36544 14.5108 7.36544 13.7489V8.24985C7.36544 7.488 7.98115 6.87508 8.74647 6.87508H16.5723V1.37599C16.5723 0.150152 18.0626 -0.457039 18.9315 0.402193L28.5986 10.0256C29.1338 10.564 29.1338 11.4347 28.5986 11.9732ZM11.0482 21.3102V19.0189C11.0482 18.6408 10.7374 18.3315 10.3577 18.3315H5.52408C4.50558 18.3315 3.68272 17.5124 3.68272 16.4985V5.50031C3.68272 4.48641 4.50558 3.66728 5.52408 3.66728H10.3577C10.7374 3.66728 11.0482 3.35795 11.0482 2.97989V0.688604C11.0482 0.310542 10.7374 0.00121831 10.3577 0.00121831H5.52408C2.47433 0.00121831 0 2.46435 0 5.50031V16.4985C0 19.5344 2.47433 21.9976 5.52408 21.9976H10.3577C10.7374 21.9976 11.0482 21.6882 11.0482 21.3102Z" fill="#368B85"/>
</svg>
