<svg width="368" height="368" viewBox="0 0 368 368" fill="none" xmlns="http://www.w3.org/2000/svg">
<path d="M291.333 322H153.333C145.2 322 137.4 318.769 131.649 313.018C125.898 307.267 122.667 299.467 122.667 291.333V230H153.333V291.333H291.333V76.6667H153.333V138H122.667V76.6667C122.667 68.5334 125.898 60.7332 131.649 54.9821C137.4 49.2309 145.2 46 153.333 46H291.333C299.467 46 307.267 49.2309 313.018 54.9821C318.769 60.7332 322 68.5334 322 76.6667V291.333C322 299.467 318.769 307.267 313.018 313.018C307.267 318.769 299.467 322 291.333 322ZM184 245.333V199.333H46V168.667H184V122.667L260.667 184L184 245.333Z" fill="#D82148"/>
</svg>
