<svg width="288" height="83" viewBox="0 0 288 83" fill="none" xmlns="http://www.w3.org/2000/svg">
<path d="M90.0104 35.6901C94.4297 35.6901 97.9735 37.1544 100.642 40.0829C103.31 43.0114 104.645 46.6873 104.648 51.1105C104.648 55.9127 103.166 59.8099 100.2 62.8021C97.2354 65.7942 93.4406 67.2889 88.8161 67.2862C87.4584 67.2848 86.1084 67.0828 84.8096 66.6865C83.4852 66.286 82.4864 65.7697 81.8131 65.1375V66.8442H69.6943C69.8614 65.1593 69.9453 63.0317 69.946 60.4615V26.5249H66.6077C67.7816 23.8274 68.5387 21.5943 68.8792 19.8257H82.0648C81.897 21.2589 81.8131 23.3864 81.8131 26.2084V38.3472C83.5367 36.5758 86.2691 35.6901 90.0104 35.6901ZM87.1754 57.4278C88.6476 57.4278 89.8992 56.8486 90.9301 55.69C91.9611 54.5315 92.4762 53.1305 92.4755 51.4871C92.4755 49.8444 91.9497 48.4438 90.898 47.2852C89.8464 46.1267 88.5426 45.5471 86.9869 45.5464C85.514 45.5464 84.2413 46.1257 83.169 47.2842C82.0966 48.4427 81.5604 49.8434 81.5604 51.4861C81.5604 53.1295 82.1176 54.5304 83.2321 55.689C84.3466 56.8475 85.6611 57.4271 87.1754 57.4278Z" fill="#368B85"/>
<path d="M110.678 40.3328C113.895 37.2376 117.764 35.69 122.287 35.69C126.809 35.69 130.689 37.2376 133.928 40.3328C137.167 43.4301 138.786 47.1692 138.786 51.5503C138.786 55.8905 137.167 59.5982 133.928 62.6733C130.689 65.7485 126.798 67.286 122.255 67.286C117.713 67.286 113.843 65.7485 110.645 62.6733C107.448 59.5982 105.849 55.8905 105.851 51.5503C105.851 47.1692 107.46 43.4301 110.678 40.3328ZM120.236 57.0801C121.497 58.1135 122.78 58.4507 124.085 58.0917C125.389 57.7327 126.325 56.7848 126.892 55.2479C127.46 53.7103 127.502 52.0251 127.018 50.1922C126.534 48.3593 125.651 46.9268 124.369 45.8948C123.085 44.8629 121.792 44.5257 120.489 44.8833C119.186 45.2409 118.25 46.1881 117.681 47.725C117.113 49.264 117.081 50.9492 117.586 52.7807C118.091 54.6123 118.974 56.0454 120.236 57.0801Z" fill="#368B85"/>
<path d="M161.184 35.69C161.681 35.6778 162.178 35.7202 162.666 35.8166C162.924 35.8864 163.188 35.9288 163.455 35.9432V48.3278C162.025 47.3595 160.553 46.8753 159.039 46.8753C158.499 46.8665 157.963 46.9685 157.465 47.1749C156.966 47.3814 156.514 47.6879 156.138 48.0757C155.374 48.8183 154.81 49.7422 154.498 50.7618C154.205 51.7354 154.057 52.7466 154.057 53.7633V60.5257C154.057 62.2548 153.446 63.7399 152.226 64.9807C151.006 66.2216 149.534 66.8441 147.81 66.8482H141.942C142.068 64.6999 142.131 62.5723 142.131 60.4655V42.9525H138.786C139.921 40.4251 140.699 38.2118 141.12 36.3125H152.792V42.8851C153.382 40.7361 154.412 38.9982 155.884 37.6716C157.355 36.345 159.122 35.6845 161.184 35.69Z" fill="#368B85"/>
<path d="M187.871 35.69C188.369 35.6779 188.866 35.7203 189.354 35.8166C189.612 35.8864 189.876 35.9288 190.142 35.9431V48.3278C188.712 47.3595 187.24 46.8753 185.726 46.8753C185.186 46.8666 184.651 46.9686 184.152 47.175C183.653 47.3814 183.202 47.688 182.826 48.0757C182.062 48.8183 181.497 49.7422 181.185 50.7618C180.893 51.7355 180.745 52.7466 180.744 53.7633V60.5257C180.744 62.2548 180.134 63.7399 178.914 64.9807C177.695 66.2216 176.223 66.844 174.498 66.8482H168.627C168.753 64.6999 168.817 62.5723 168.817 60.4655V42.9525H165.472C166.609 40.4251 167.387 38.2118 167.807 36.3125H179.479C179.479 36.3125 178.891 45.0341 179.479 42.8851C180.067 40.7361 181.098 38.9982 182.571 37.6716C184.044 36.345 185.81 35.6845 187.871 35.69Z" fill="#368B85"/>
<path d="M196.925 40.3328C200.142 37.2376 204.012 35.69 208.534 35.69C213.056 35.69 216.936 37.2383 220.174 40.3349C223.413 43.4322 225.032 47.1713 225.033 51.5523C225.033 55.8925 223.414 59.6002 220.174 62.6754C216.935 65.7505 213.045 67.2874 208.505 67.286C203.963 67.286 200.093 65.7485 196.896 62.6733C193.699 59.5982 192.099 55.8905 192.098 51.5503C192.098 47.1692 193.707 43.4301 196.925 40.3328ZM206.483 57.0801C207.746 58.1135 209.029 58.4507 210.332 58.0917C211.635 57.7327 212.571 56.7848 213.14 55.2479C213.708 53.7103 213.75 52.0251 213.266 50.1922C212.781 48.3593 211.898 46.9268 210.616 45.8948C209.332 44.8629 208.039 44.5257 206.736 44.8833C205.433 45.2409 204.497 46.1881 203.928 47.725C203.36 49.264 203.329 50.9492 203.834 52.7807C204.338 54.6123 205.222 56.0454 206.483 57.0801Z" fill="#368B85"/>
<path d="M272.103 36.3198C270.882 38.4688 269.325 41.8182 267.433 46.368C262.932 57.407 260.534 63.3266 260.241 64.1268C259.88 65.0733 259.243 65.8885 258.412 66.4654C257.581 67.0514 256.588 67.3607 255.572 67.3493C254.854 65.8332 254.011 64.1901 253.044 62.4202L247.554 52.6251C243.687 59.9146 241.669 63.7485 241.5 64.1268C241.038 65.0958 240.303 65.9086 239.386 66.4654C238.471 67.0463 237.41 67.353 236.326 67.3493C235.443 64.9907 234.308 62.1895 232.92 58.9456L225.853 42.6412C224.675 39.9859 223.665 37.8791 222.825 36.3208H236.326C236.534 37.5015 236.933 38.9761 237.526 40.7447L240.615 48.7698L245.158 39.2248C245.632 38.2964 246.014 37.3234 246.297 36.3198H250.337C250.699 37.3637 251.142 38.378 251.661 39.3534L255.944 48.14L258.089 42.3891C258.426 41.4623 259.058 39.4399 259.983 36.3218L272.103 36.3198Z" fill="#368B85"/>
<path d="M286.293 19.8256C286.334 19.8256 286.356 19.8681 286.356 19.9522C286.187 21.2158 286.103 23.3012 286.103 26.2083V60.4614C286.103 62.2313 285.482 63.7374 284.239 64.9797C282.996 66.2219 281.492 66.8444 279.728 66.8472H274.05C274.041 66.8484 274.033 66.8476 274.024 66.8448C274.016 66.8421 274.009 66.8374 274.003 66.8313C273.996 66.8252 273.992 66.8177 273.989 66.8095C273.986 66.8012 273.986 66.7925 273.987 66.7839C274.155 65.5202 274.239 63.4137 274.239 60.4645V26.588C274.241 26.5794 274.24 26.5707 274.237 26.5624C274.234 26.5542 274.23 26.5467 274.224 26.5406C274.218 26.5345 274.21 26.5298 274.202 26.5271C274.194 26.5243 274.185 26.5235 274.176 26.5247H271.021C270.936 26.5247 270.918 26.4832 270.958 26.3981C271.924 24.3058 272.688 22.1262 273.242 19.8889C273.241 19.8803 273.242 19.8715 273.244 19.8633C273.247 19.8551 273.252 19.8476 273.258 19.8414C273.264 19.8353 273.271 19.8307 273.28 19.8279C273.288 19.8252 273.297 19.8244 273.305 19.8256H286.293Z" fill="#368B85"/>
<path d="M19.8624 24.0129C21.4689 24.1986 23.0485 24.2806 24.5856 24.5815C26.7607 25.0058 28.5444 26.1626 29.9158 27.9274C30.5372 28.7253 31.1587 29.5221 31.8413 30.3956C32.0164 30.1881 32.1614 30.0055 32.3105 29.8312C33.2697 28.7118 34.1335 27.4875 35.2107 26.5009C36.8152 25.0359 38.8091 24.3937 40.9884 24.3097C41.9506 24.2723 42.9087 24.1208 44.0191 24.0057C44.1641 24.9871 44.3796 26.0122 44.4521 27.0466C44.5308 28.1764 44.4604 29.3156 44.4925 30.4496C44.5028 30.82 44.3609 30.9932 44.0471 31.1333C42.5908 31.7848 41.2618 32.6076 40.2882 33.92C39.241 35.33 38.6713 36.9039 38.6589 38.6604C38.6402 41.1732 38.6806 43.687 38.6423 46.1988C38.6313 47.1077 38.4385 48.0051 38.0753 48.8381C37.7122 49.671 37.186 50.4226 36.528 51.0485C35.8699 51.6743 35.0934 52.1617 34.2441 52.4819C33.3948 52.8021 32.4901 52.9485 31.5834 52.9125C28.0866 52.7953 25.1511 49.8903 25.0693 46.3866C25.0123 43.9568 25.0558 41.5239 25.0506 39.092C25.0444 35.5956 23.5084 33.0143 20.3544 31.5099C19.4543 31.0793 19.1456 30.5948 19.1922 29.6019C19.2709 27.9025 19.1995 26.1979 19.6925 24.5421C19.7495 24.3532 19.8137 24.1654 19.8624 24.0129ZM40.5937 30.5347C40.5939 29.9565 40.4225 29.3914 40.1014 28.911C39.7802 28.4307 39.3238 28.0567 38.79 27.8367C38.2563 27.6168 37.6693 27.5606 37.1036 27.6755C36.5379 27.7904 36.0191 28.0711 35.613 28.4819C35.207 28.8928 34.9319 29.4152 34.8229 29.9829C34.7139 30.5507 34.7758 31.138 35.0008 31.6705C35.2257 32.2029 35.6036 32.6563 36.0864 32.9732C36.5691 33.29 37.135 33.456 37.7122 33.45C38.478 33.4389 39.2088 33.1273 39.7477 32.5821C40.2865 32.0369 40.5903 31.3018 40.5937 30.5347V30.5347ZM28.9328 30.5347C28.9326 29.9589 28.7622 29.396 28.4431 28.9171C28.1241 28.4381 27.6706 28.0645 27.1399 27.8432C26.6092 27.622 26.0249 27.5631 25.4609 27.6739C24.8968 27.7847 24.378 28.0603 23.97 28.4659C23.5621 28.8715 23.2831 29.3891 23.1682 29.9533C23.0534 30.5174 23.1079 31.1031 23.3248 31.6363C23.5417 32.1695 23.9114 32.6265 24.3872 32.9496C24.8629 33.2728 25.4236 33.4476 25.9984 33.4521C26.3826 33.4539 26.7634 33.3797 27.1189 33.2339C27.4744 33.088 27.7977 32.8734 28.0703 32.6022C28.3429 32.331 28.5594 32.0086 28.7074 31.6534C28.8554 31.2983 28.932 30.9174 28.9328 30.5326V30.5347ZM32.7746 36.3633V32.5246H30.9267V36.3633H32.7746Z" fill="#368B85"/>
<path d="M34.9487 71.4142C27.2976 71.4142 19.6462 71.4142 11.9945 71.4142C7.99425 71.408 4.68593 68.7167 3.84279 64.8272C2.75625 59.815 6.62907 54.9159 11.7656 54.8838C17.3319 54.8433 22.8983 54.8723 28.4646 54.8723H58.0986C59.3354 54.8723 60.0117 55.3755 60.0283 56.3062C60.0459 57.2565 59.3468 57.7919 58.0883 57.7919C42.7855 57.7919 27.483 57.7919 12.1809 57.7919C9.54069 57.7919 7.48257 59.2869 6.80102 61.6825C6.57838 62.4648 6.53695 63.2878 6.6799 64.0886C6.82285 64.8894 7.1464 65.6469 7.6259 66.3035C8.1054 66.9601 8.72819 67.4984 9.44684 67.8774C10.1655 68.2564 10.961 68.4661 11.7728 68.4906C12.3995 68.5092 13.0282 68.4968 13.6549 68.4968H57.9868C58.2095 68.4968 58.4332 68.4875 58.6549 68.5041C59.0225 68.5246 59.3688 68.6834 59.6245 68.9486C59.8803 69.2139 60.0267 69.5661 60.0345 69.9348C60.047 70.7139 59.4483 71.3499 58.6372 71.4091C58.4353 71.4246 58.2322 71.4163 58.0303 71.4163L34.9487 71.4142Z" fill="#368B85"/>
<path d="M58.0458 66.5473H12.1747C10.3559 66.5473 9.02072 65.5513 8.63333 63.9204C8.51822 63.4362 8.51068 62.9327 8.61126 62.4453C8.71183 61.958 8.91805 61.4987 9.21535 61.1C9.51265 60.7012 9.89377 60.3728 10.3318 60.1378C10.7697 59.9029 11.2539 59.7672 11.75 59.7403C11.9116 59.732 12.0742 59.7403 12.2358 59.7403H58.0458V66.5473Z" fill="#368B85"/>
<path d="M15.4499 11.6044C15.6633 11.8379 15.8932 12.0589 16.0869 12.3079C17.6768 14.3507 19.8748 15.2772 22.3348 15.687C23.1902 15.8351 24.0562 15.9128 24.9243 15.9194C27.6515 15.9194 29.634 17.1644 31.0199 19.4469C31.311 19.9293 31.5482 20.445 31.8485 21.0249C32.0153 20.6929 32.1593 20.4024 32.3095 20.1078C33.3287 18.1013 34.7954 16.5803 37.0606 16.1124C38.1596 15.8852 39.328 16.0014 40.4342 15.7959C41.7988 15.54 43.1439 15.1885 44.4593 14.7439C45.5013 14.3932 46.3776 13.7137 47.1109 12.8764C47.4786 12.4552 47.8743 12.0609 48.3249 11.5826C48.4689 14.0986 48.3891 16.4589 47.2435 18.6615C45.9488 21.1515 43.8813 22.3311 41.1033 22.3758C37.7743 22.4287 34.986 23.7245 32.7238 26.1564C32.4255 26.478 32.1624 26.8329 31.8423 27.223C31.5948 26.9117 31.3949 26.6388 31.1722 26.3857C29.0053 23.9216 26.2832 22.5366 23.0122 22.3944C18.6122 22.2035 15.9688 19.8432 15.4582 15.4266C15.3142 14.1816 15.3328 12.9231 15.2769 11.6698L15.4499 11.6044Z" fill="#368B85"/>
<path d="M25.0962 51.7713C23.4441 51.2299 21.8873 50.4316 20.4828 49.4058C17.9855 47.5735 16.1242 45.2744 15.5369 42.1598C14.8771 38.6635 15.9512 35.6423 18.3056 33.0454C18.4091 32.9292 18.6795 32.8327 18.8058 32.8856C21.1478 33.8671 22.7336 35.4846 23.0723 38.1095C23.1028 38.4121 23.1143 38.7163 23.1065 39.0204C23.1065 41.2303 23.1303 43.4412 23.1013 45.651C23.0733 47.8142 23.6378 49.7709 24.973 51.488C25.0224 51.5785 25.0637 51.6733 25.0962 51.7713Z" fill="#368B85"/>
<path d="M38.6351 51.625C39.7019 50.27 40.3721 48.7459 40.5326 47.032C40.6082 46.2269 40.5917 45.4124 40.5948 44.6021C40.602 42.6558 40.5668 40.7094 40.6041 38.7641C40.6652 35.5997 42.5555 33.8682 44.912 32.8877C45.0363 32.8358 45.2942 32.9448 45.4102 33.0599C48.4782 36.0739 49.2364 41.0611 47.2021 44.9165C45.6712 47.8163 43.2412 49.7305 40.3275 51.0938C39.8045 51.3386 39.2617 51.5389 38.7272 51.7598L38.6351 51.625Z" fill="#368B85"/>
<path d="M33.9844 15.2263L31.8548 17.1291L29.7355 15.2326C30.6595 14.8736 32.9962 14.8684 33.9844 15.2263Z" fill="#368B85"/>
<path d="M38.6506 30.5596C38.6458 30.7512 38.5844 30.9371 38.4742 31.0937C38.3639 31.2504 38.2097 31.3708 38.0312 31.4397C37.8526 31.5085 37.6576 31.5228 37.471 31.4807C37.2843 31.4386 37.1142 31.342 36.9824 31.2031C36.8505 31.0642 36.7628 30.8893 36.7302 30.7004C36.6976 30.5115 36.7216 30.3172 36.7993 30.142C36.877 29.9669 37.0048 29.8187 37.1665 29.7163C37.3283 29.6139 37.5167 29.5618 37.708 29.5667C37.9633 29.5767 38.2046 29.686 38.3806 29.8714C38.5566 30.0568 38.6535 30.3037 38.6506 30.5596V30.5596Z" fill="#368B85"/>
<path d="M26.0046 29.5688C26.196 29.5649 26.3843 29.618 26.5456 29.7213C26.7068 29.8247 26.8338 29.9737 26.9105 30.1494C26.9872 30.3251 27.0102 30.5196 26.9764 30.7084C26.9427 30.8972 26.8537 31.0717 26.7209 31.2098C26.5881 31.3479 26.4174 31.4435 26.2303 31.4843C26.0432 31.5252 25.8483 31.5096 25.6701 31.4394C25.4919 31.3692 25.3386 31.2477 25.2294 31.0901C25.1202 30.9326 25.0602 30.7461 25.0569 30.5544C25.0546 30.2985 25.1526 30.052 25.3298 29.8677C25.507 29.6834 25.7493 29.5761 26.0046 29.5688Z" fill="#368B85"/>
</svg>
