<svg xmlns="http://www.w3.org/2000/svg" viewBox="0 0 2780.48 800"><defs><style>.cls-1{fill:#f5f5f5;}</style></defs><title>logo</title><g id="design_3" data-name="design 3"><path class="cls-1" d="M869,344q64,0,102.64,42.34t38.68,106.29q0,69.43-42.94,112.69T857.47,648.54a133.19,133.19,0,0,1-38.68-5.78q-19.18-5.79-28.93-14.93v16.45h-117q2.42-24.36,2.43-61.52V255.66H643.06q17-39,21.93-64.57h127.3q-2.43,20.72-2.43,61.52v117Q814.82,344,869,344ZM841.63,553.52q21.32,0,36.25-16.75t14.92-40.51q0-23.75-15.23-40.5T839.81,439q-21.33,0-36.86,16.75t-15.53,40.5q0,23.76,16.14,40.51T841.63,553.52Z"/><path class="cls-1" d="M1068.53,388.75Q1115.12,344,1180.61,344T1293,388.75q46.9,44.78,46.9,108.12,0,62.75-46.9,107.21T1180.3,648.54q-65.77,0-112.08-44.46t-46.29-107.21Q1021.93,433.53,1068.53,388.75Zm92.28,161.42q18.27,14.94,37.16,9.75t27.1-27.41q8.23-22.23,1.22-48.73t-25.58-41.42q-18.59-14.92-37.46-9.75T1136.14,460q-8.22,22.25-.91,48.73T1160.81,550.17Z"/><path class="cls-1" d="M1556.14,344a65.67,65.67,0,0,1,14.31,1.22,36.8,36.8,0,0,0,7.62,1.22V465.81q-20.71-14-42.64-14a38.17,38.17,0,0,0-28,11.57,61,61,0,0,0-15.84,25.89,100.59,100.59,0,0,0-4.26,28.93v65.18q0,25-17.67,42.94t-42.64,18h-56.65q1.83-31.06,1.83-61.52V414H1339.9q16.44-36.54,22.54-64h112.68v63.35q8.54-31.07,29.85-50.25T1556.14,344Z"/><path class="cls-1" d="M1813.79,344a65.84,65.84,0,0,1,14.32,1.22,36.64,36.64,0,0,0,7.61,1.22V465.81q-20.71-14-42.64-14a38.18,38.18,0,0,0-28,11.57,61,61,0,0,0-15.84,25.89,100.93,100.93,0,0,0-4.26,28.93v65.18q0,25-17.66,42.94t-42.64,18H1628q1.83-31.06,1.83-61.52V414h-32.29q16.46-36.54,22.54-64h112.69v63.35q8.52-31.07,29.85-50.25T1813.79,344Z"/><path class="cls-1" d="M1901.2,388.75Q1947.79,344,2013.28,344t112.38,44.77q46.9,44.78,46.91,108.12,0,62.75-46.91,107.21T2013,648.54q-65.78,0-112.08-44.46T1854.6,496.87Q1854.6,433.53,1901.2,388.75Zm92.28,161.42q18.29,14.94,37.16,9.75t27.11-27.41q8.22-22.23,1.21-48.73t-25.58-41.42q-18.59-14.92-37.46-9.75T1968.81,460q-8.22,22.25-.91,48.73T1993.48,550.17Z"/><path class="cls-1" d="M2627,350.07q-17.68,31.07-45.08,96.85-65.19,159.6-69.44,171.17a48.4,48.4,0,0,1-17.66,22.54,46.67,46.67,0,0,1-27.41,8.52Q2457,627.23,2443,601.64l-53-94.41Q2334,612.62,2331.55,618.09a53.18,53.18,0,0,1-20.41,22.54,54.83,54.83,0,0,1-29.54,8.52q-12.79-34.1-32.89-81L2180.49,411q-17.07-38.39-29.24-60.92H2281.6q3,17.07,11.58,42.64L2323,470.07l43.86-92a152.45,152.45,0,0,0,11-28h39a206.38,206.38,0,0,0,12.79,29.24L2471,464l20.71-55.43q4.88-13.4,18.28-58.48Z"/><path class="cls-1" d="M2764,191.09c.4,0,.61.41.61,1.22q-2.45,18.27-2.44,60.3V582.76q0,25.59-18,43.55t-43.55,18h-54.82a.54.54,0,0,1-.61-.61q2.43-18.27,2.44-60.91V256.27a.54.54,0,0,0-.61-.61h-30.46c-.82,0-1-.4-.61-1.22A350.41,350.41,0,0,0,2638,191.7a.54.54,0,0,1,.61-.61Z"/></g><g id="Layer_7" data-name="Layer 7"><path class="cls-1" d="M191.76,231.45c15.51,1.79,30.76,2.58,45.6,5.48,21,4.09,38.22,15.24,51.46,32.25,6,7.69,12,15.37,18.59,23.79,1.69-2,3.09-3.76,4.53-5.44,9.26-10.79,17.6-22.59,28-32.1,15.49-14.12,34.74-20.31,55.78-21.12,9.29-.36,18.54-1.82,29.26-2.93,1.4,9.46,3.48,19.34,4.18,29.31.76,10.89.08,21.87.39,32.8.1,3.57-1.27,5.24-4.3,6.59-14.06,6.28-26.89,14.21-36.29,26.86-10.11,13.59-15.61,28.76-15.73,45.69-.18,24.22.21,48.45-.16,72.66A65.56,65.56,0,0,1,304.92,510c-33.76-1.13-62.1-29.13-62.89-62.9-.55-23.42-.13-46.87-.18-70.31-.06-33.7-14.89-58.58-45.34-73.08-8.69-4.15-11.67-8.82-11.22-18.39.76-16.38.07-32.81,4.83-48.77C190.67,234.73,191.29,232.92,191.76,231.45Zm200.15,62.86a28.11,28.11,0,1,0-27.82,28.1A28.23,28.23,0,0,0,391.91,294.31Zm-112.58,0A28.11,28.11,0,1,0,251,322.43,28.2,28.2,0,0,0,279.33,294.29Zm37.09,56.18v-37H298.58v37Z"/><path class="cls-1" d="M337.41,688.33q-110.8,0-221.61,0c-38.62-.06-70.56-26-78.7-63.49C26.61,576.53,64,529.31,113.59,529c53.74-.39,107.48-.11,161.22-.11h286.1c11.94,0,18.47,4.85,18.63,13.82.17,9.16-6.58,14.32-18.73,14.32q-221.61,0-443.21,0c-25.49,0-45.36,14.41-51.94,37.5a51.52,51.52,0,0,0,48,65.62c6.05.18,12.12.06,18.17.06h428c2.15,0,4.31-.09,6.45.07a14.11,14.11,0,0,1,13.32,13.79c.12,7.51-5.66,13.64-13.49,14.21-1.95.15-3.91.07-5.86.07Z"/><path class="cls-1" d="M560.4,641.42H117.54c-17.56,0-30.45-9.6-34.19-25.32a32.75,32.75,0,0,1,30.09-40.29c1.56-.08,3.13,0,4.69,0H560.4Z"/><path class="cls-1" d="M149.16,111.85c2.06,2.25,4.28,4.38,6.15,6.78,15.35,19.69,36.57,28.62,60.32,32.57a153.65,153.65,0,0,0,25,2.24c26.33,0,45.47,12,58.85,34,2.81,4.65,5.1,9.62,8,15.21,1.61-3.2,3-6,4.45-8.84,9.84-19.34,24-34,45.87-38.51,10.61-2.19,21.89-1.07,32.57-3.05a286.38,286.38,0,0,0,38.86-10.14c10.06-3.38,18.52-9.93,25.6-18,3.55-4.06,7.37-7.86,11.72-12.47,1.39,24.25.62,47-10.44,68.23-12.5,24-32.46,35.37-59.28,35.8-32.14.51-59.06,13-80.9,36.44-2.88,3.1-5.42,6.52-8.51,10.28-2.39-3-4.32-5.63-6.47-8.07-20.92-23.75-47.2-37.1-78.78-38.47-42.48-1.84-68-24.59-72.93-67.16-1.39-12-1.21-24.13-1.75-36.21Z"/><path class="cls-1" d="M242.29,499a160.06,160.06,0,0,1-44.54-22.8c-24.11-17.66-42.08-39.82-47.75-69.84-6.37-33.7,4-62.82,26.73-87.85,1-1.12,3.61-2.05,4.83-1.54,22.61,9.46,37.92,25.05,41.19,50.35a69.52,69.52,0,0,1,.33,8.78c0,21.3.23,42.61-.05,63.91-.27,20.85,5.18,39.71,18.07,56.26A16.57,16.57,0,0,1,242.29,499Z"/><path class="cls-1" d="M373,497.59c10.3-13.06,16.77-27.75,18.32-44.27.73-7.76.57-15.61.6-23.42.07-18.76-.27-37.52.09-56.27.59-30.5,18.84-47.19,41.59-56.64,1.2-.5,3.69.55,4.81,1.66,29.62,29.05,36.94,77.12,17.3,114.28-14.78,27.95-38.24,46.4-66.37,59.54-5.05,2.36-10.29,4.29-15.45,6.42Z"/><path class="cls-1" d="M328.1,146.76,307.54,165.1l-20.46-18.28C296,143.36,318.56,143.31,328.1,146.76Z"/><path class="cls-1" d="M373.15,294.55a9.34,9.34,0,1,1-9.1-9.57A9.47,9.47,0,0,1,373.15,294.55Z"/><path class="cls-1" d="M251.06,285a9.34,9.34,0,1,1-9.15,9.5A9.42,9.42,0,0,1,251.06,285Z"/></g></svg>