<svg width="27" height="28" viewBox="0 0 27 28" fill="none" xmlns="http://www.w3.org/2000/svg">
<path d="M11.3333 23.4999C13.8479 23.4994 16.29 22.6576 18.2708 21.1086L24.4984 27.3363L26.5016 25.3331L20.2739 19.1054C21.8238 17.1244 22.6661 14.6818 22.6667 12.1666C22.6667 5.91767 17.5823 0.833252 11.3333 0.833252C5.08442 0.833252 0 5.91767 0 12.1666C0 18.4155 5.08442 23.4999 11.3333 23.4999ZM11.3333 3.66659C16.0211 3.66659 19.8333 7.47884 19.8333 12.1666C19.8333 16.8543 16.0211 20.6666 11.3333 20.6666C6.64558 20.6666 2.83333 16.8543 2.83333 12.1666C2.83333 7.47884 6.64558 3.66659 11.3333 3.66659Z" fill="#D9D9DE"/>
</svg>
