<svg id="Layer_1" data-name="Layer 1" xmlns="http://www.w3.org/2000/svg" viewBox="0 0 1000 1000"><defs><style>.cls-1{fill:#d82148;}.cls-2{fill:#f7a99b;}.cls-3{fill:#d69488;}.cls-4{fill:#3d342f;}.cls-5{fill:#fff;}</style></defs><title>userava</title><path class="cls-1" d="M1000,501.92C1000,777.55,776.55,1001,500.92,1001S1.82,777.55,1.82,501.92,225.27,2.83,500.92,2.83,1000,226.28,1000,501.92Z"/><path class="cls-2" d="M798.23,529.09c0,146.56-132.78,265.37-296.58,265.37s-296.6-118.81-296.6-265.37,132.8-265.36,296.6-265.36S798.23,382.54,798.23,529.09Z"/><path class="cls-3" d="M657.74,642.53c0,55.17-68.49,99.9-153,99.9s-153-44.73-153-99.9,68.48-99.9,153-99.9S657.74,587.35,657.74,642.53Z"/><path class="cls-3" d="M554.93,468.75a54.9,54.9,0,1,0,54.89-54.89A54.89,54.89,0,0,0,554.93,468.75Z"/><path class="cls-4" d="M574.94,469.2a32.66,32.66,0,1,0,32.66-32.66A32.66,32.66,0,0,0,574.94,469.2Z"/><path class="cls-5" d="M602.94,442.24a15.55,15.55,0,1,0,15.54-15.55A15.55,15.55,0,0,0,602.94,442.24Z"/><path class="cls-3" d="M467.91,468.75A54.9,54.9,0,1,1,413,413.86,54.9,54.9,0,0,1,467.91,468.75Z"/><path class="cls-4" d="M447.89,469.2a32.66,32.66,0,1,1-32.65-32.66A32.65,32.65,0,0,1,447.89,469.2Z"/><path class="cls-5" d="M419.89,442.24a15.55,15.55,0,1,1-15.54-15.55A15.55,15.55,0,0,1,419.89,442.24Z"/><path class="cls-4" d="M478.21,644.6A27.58,27.58,0,1,1,450.63,617,27.58,27.58,0,0,1,478.21,644.6Z"/><path class="cls-4" d="M592,646a27.59,27.59,0,1,1-27.58-27.58A27.59,27.59,0,0,1,592,646Z"/><path class="cls-2" d="M795.7,387c-39.11,35.12-98.25,33.06-132.08-4.61s-29.55-96.7,9.55-131.82,179.06-46.21,185.32-39.26S834.82,351.9,795.7,387Z"/><path class="cls-3" d="M782.18,361.42c-27.13,24.37-68.14,22.93-91.63-3.2s-20.5-67.07,6.65-91.44,124.2-32.06,128.53-27.23S809.31,337.06,782.18,361.42Z"/><path class="cls-2" d="M206.12,387c39.11,35.12,98.25,33.06,132.08-4.61s29.54-96.7-9.57-131.82-179-46.21-185.29-39.26S167,351.9,206.12,387Z"/><path class="cls-3" d="M219.64,361.42c27.13,24.37,68.15,22.93,91.61-3.2s20.51-67.07-6.62-91.44-124.22-32.06-128.55-27.23S192.5,337.06,219.64,361.42Z"/></svg>